# xmcd CD database file
#
# Track frame offsets:
#	150
#	19722
#	35724
#	54255
#	73656
#	99450
#	118446
#	134919
#	153274
#	169120
#
# Disc length: 2797 seconds
#
# Revision: 1
# Processed by: cddbd v1.5.2PL0 Copyright (c) Steve Scherf et al.
# Submitted via: CDex 1.70beta2
#
DISCID=8d0aeb0a
DTITLE=Tito Sierra, Leslie Nunez y Pedro Wong - La Nueva Ley
DYEAR=2005
DGENRE=Salsa
TTITLE0=La Ley Del Timbal
TTITLE1=Un Poquito Loco
TTITLE2=Termometro De Amor
TTITLE3=Adentro De Tu Corazon
TTITLE4=Silver Trail Mambo
TTITLE5=Amarte A Escondida
TTITLE6=El Infiel
TTITLE7=Desesperado
TTITLE8=Desesperado Bolero
TTITLE9=Rumba Pa' Glen
EXTD=YEAR: 2005
EXTT0=
EXTT1=
EXTT2=
EXTT3=
EXTT4=
EXTT5=
EXTT6=
EXTT7=
EXTT8=
EXTT9=
PLAYORDER=
